# xmcd
#
# Track frame offsets: 
#        150
#        18543
#        25582
#        43733
#        62547
#        77275
#        94452
#        109212
#        128616
#        148899
#        168781
#        194547
#        216610
#        229672
#        243558
#        259238
#        280428
#
# Disc length: 4038 seconds
#
# Revision: 0
# Processed by: cddbd v1.5.2PL0 Copyright (c) Steve Scherf et al.
# Submitted via: ExactAudioCopy v1.2
#
DISCID=f70fc411
DTITLE=Gaye Adegbalola - The Griot
DYEAR=2018
DGENRE=Blues
TTITLE0=Nothing's Changed
TTITLE1=The Griot
TTITLE2=Liearrhea
TTITLE3=FGM (Female Genital Mutilation)
TTITLE4=Dirty Sheets
TTITLE5=(You're) Flint Water
TTITLE6=Kaepernicked
TTITLE7=Ain't Technology Grand?
TTITLE8=Gon' Be Alright
TTITLE9=Don't Criticize Me
TTITLE10=Nothing Left
TTITLE11=(There Is Always) One More Time
TTITLE12=Need a Little Sugar in My Bowl
TTITLE13=Tea Cake Kind of Love
TTITLE14=3 Hour Shoes (Stylin' for the Lord)
TTITLE15=Sorry, But... No Shame
TTITLE16=Jelly Bean Blues
EXTD=
EXTT0=
EXTT1=
EXTT2=
EXTT3=
EXTT4=
EXTT5=
EXTT6=
EXTT7=
EXTT8=
EXTT9=
EXTT10=
EXTT11=
EXTT12=
EXTT13=
EXTT14=
EXTT15=
EXTT16=
PLAYORDER=
